<svg width="42" height="42" viewBox="0 0 42 42" fill="none" xmlns="http://www.w3.org/2000/svg">
<rect width="42" height="42" fill="black"/>
<path d="M21.0536 25.6781L20.7602 24.4308H20.2409L19.9475 25.6781C19.8297 26.1797 19.4215 26.571 18.8996 26.6842L17.5998 26.9664V27.4649L18.8991 27.7466C19.4215 27.8598 19.8291 28.2516 19.947 28.7526L20.2404 30H20.7597L21.0531 28.7526C21.171 28.2511 21.5792 27.8598 22.1011 27.7466L23.4004 27.4649V26.9664L22.1011 26.6847C21.5797 26.571 21.172 26.1797 21.0536 25.6781Z" fill="white"/>
<path d="M19.4644 12.2829C20.3887 11.7339 21.6017 12.0082 22.1736 12.8956L32.9624 29.6357C33.0649 29.7948 32.9458 30 32.751 30H29.9536C29.0925 30 28.2926 29.5721 27.8395 28.8691L18.8262 14.8839C18.2543 13.9965 18.54 12.832 19.4644 12.2829Z" fill="url(#paint0_linear_24_2)"/>
<path d="M18.8264 12.8956C19.3983 12.0082 20.6112 11.7339 21.5356 12.2829C22.4599 12.832 22.7457 13.9965 22.1737 14.8839L13.1605 28.869C12.7074 29.5721 11.9075 30 11.0464 30H8.249C8.05424 30 7.93511 29.7947 8.03759 29.6357L18.8264 12.8956Z" fill="white"/>
<defs>
<linearGradient id="paint0_linear_24_2" x1="31.7462" y1="31.3022" x2="21.1677" y2="13.493" gradientUnits="userSpaceOnUse">
<stop stop-color="white"/>
<stop offset="1" stop-color="#999999"/>
</linearGradient>
</defs>
</svg>
