<svg width="23" height="32" viewBox="3.5 -1 23 32" fill="none" xmlns="http://www.w3.org/2000/svg">
<path d="M4.78125 5.80063C4.78125 2.76274 7.24395 0.300049 10.2819 0.300049H19.7202C22.7581 0.300049 25.2208 2.76274 25.2208 5.80063C25.2208 7.72424 24.2334 9.41727 22.7377 10.4004C24.2334 11.3836 25.2208 13.0765 25.2208 15.0002C25.2208 18.0381 22.7581 20.5008 19.7202 20.5008H19.6007C18.1766 20.5008 16.8788 19.9595 15.9019 19.0715V24.1397C15.9019 27.2181 13.3748 29.7001 10.3115 29.7001C7.28117 29.7001 4.78125 27.2449 4.78125 24.1994C4.78125 22.2759 5.76859 20.583 7.26412 19.5998C5.76859 18.6167 4.78125 16.9237 4.78125 15.0002C4.78125 13.0765 5.76868 11.3836 7.26431 10.4004C5.76868 9.41727 4.78125 7.72424 4.78125 5.80063ZM14.1001 11.3013H10.2819C8.23904 11.3013 6.58302 12.9574 6.58302 15.0002C6.58302 17.0351 8.22626 18.6862 10.2582 18.6989C10.2661 18.6989 10.2739 18.6989 10.2819 18.6989H14.1001V11.3013ZM15.9019 15.0002C15.9019 17.0429 17.5579 18.699 19.6007 18.699H19.7202C21.763 18.699 23.419 17.0429 23.419 15.0002C23.419 12.9574 21.763 11.3013 19.7202 11.3013H19.6007C17.5579 11.3013 15.9019 12.9574 15.9019 15.0002ZM10.2819 20.5008C10.2739 20.5008 10.2661 20.5007 10.2582 20.5007C8.22626 20.5134 6.58302 22.1645 6.58302 24.1994C6.58302 26.2348 8.26116 27.8983 10.3115 27.8983C12.3949 27.8983 14.1001 26.208 14.1001 24.1397V20.5008H10.2819ZM10.2819 2.10182C8.23904 2.10182 6.58302 3.75784 6.58302 5.80063C6.58302 7.84345 8.23904 9.49944 10.2819 9.49944H14.1001V2.10182H10.2819ZM15.9019 9.49944H19.7202C21.763 9.49944 23.419 7.84345 23.419 5.80063C23.419 3.75784 21.763 2.10182 19.7202 2.10182H15.9019V9.49944Z" fill="black" stroke="black" stroke-width="1.2" stroke-linejoin="round"/>
</svg>
