<svg preserveAspectRatio="none" width="100%" height="100%" overflow="visible" style="display: block;" viewBox="0 0 19.2868 19.2875" fill="none" xmlns="http://www.w3.org/2000/svg">
<path id="Union" d="M17.4748 2.9286C17.9256 2.7722 18.4451 2.82691 18.8254 3.10926C19.024 3.25672 19.2085 3.4881 19.2678 3.79969C19.3283 4.11832 19.2384 4.41755 19.0803 4.65614C18.8832 4.95356 18.609 5.22427 18.3606 5.45985C18.2874 5.52923 18.2148 5.59671 18.1428 5.66395C17.9507 5.8434 17.7612 6.02117 17.5666 6.22255C17.049 6.75837 16.5872 7.37921 16.3713 8.2284L16.3703 8.23036V8.23817C16.3702 8.24605 16.3707 8.26 16.3742 8.27919C16.3818 8.31936 16.3996 8.37497 16.4338 8.44423C17.4148 10.4294 16.3112 12.4736 14.3703 13.7899C12.498 15.0597 9.66991 15.8323 6.30979 15.6122C5.86655 16.591 5.48401 17.6315 5.17796 18.7333C5.066 19.1362 4.6483 19.3716 4.24534 19.2597C3.84251 19.1477 3.60626 18.7309 3.718 18.328C4.09825 16.9591 4.58979 15.678 5.16429 14.4862C8.25971 8.06521 13.7781 4.21169 17.4748 2.9286ZM4.28929 2.15907C4.37784 1.90085 4.74275 1.90083 4.83128 2.15907L5.78343 4.9452C5.84074 5.11305 5.97209 5.24516 6.13987 5.30262L8.926 6.25477C9.18474 6.34313 9.18474 6.70841 8.926 6.79676L6.13987 7.74794C5.97214 7.80531 5.84085 7.93765 5.78343 8.10536L4.83128 10.8915C4.74292 11.1502 4.37764 11.1502 4.28929 10.8915L3.33714 8.10536C3.27969 7.93755 3.14759 7.80526 2.97972 7.74794L0.193582 6.79676C-0.0645592 6.70821 -0.0644956 6.34339 0.193582 6.25477L2.97972 5.30262C3.14773 5.24525 3.27976 5.11321 3.33714 4.9452L4.28929 2.15907ZM11.4807 0.0916861C11.648 -0.0994157 11.9626 0.0294044 11.9475 0.283092L11.8557 1.81923C11.8508 1.9016 11.8843 1.98175 11.9465 2.03602L13.1057 3.04774C13.2972 3.21498 13.1681 3.52969 12.9143 3.51454L11.3782 3.42372C11.2958 3.41883 11.2156 3.45237 11.1614 3.51454L10.1496 4.67274C9.98248 4.8642 9.66801 4.73591 9.68284 4.48231L9.77366 2.94618C9.77858 2.86377 9.74503 2.78368 9.68284 2.72938L8.52464 1.71669C8.33319 1.54953 8.4615 1.23509 8.71507 1.24989L10.2512 1.34169C10.3336 1.3466 10.4137 1.31302 10.468 1.25087L11.4807 0.0916861Z" fill="var(--fill-0, #00AF00)"/>
</svg>
