<svg preserveAspectRatio="none" width="100%" height="100%" overflow="visible" style="display: block;" viewBox="0 0 14.644 14.0681" fill="none" xmlns="http://www.w3.org/2000/svg">
<path id="Union" fill-rule="evenodd" clip-rule="evenodd" d="M1.46139 0.956655C1.19444 1.04564 1.03675 1.32077 1.09492 1.59609L1.22384 2.20633C1.25426 2.35034 1.3408 2.4763 1.46431 2.55635C1.58782 2.63641 1.73813 2.66397 1.88201 2.63293C2.16676 2.57152 2.42668 2.52181 2.66218 2.48347C2.66439 2.48311 2.6666 2.48274 2.66881 2.48235C2.66996 2.48215 2.67111 2.48195 2.67225 2.48174C2.90351 2.43969 3.08647 2.42191 3.22647 2.42191C3.39245 2.42191 3.52805 2.44041 3.63796 2.47074L3.64018 2.47134L3.64254 2.47198C3.72598 2.49423 3.80837 2.53674 3.89224 2.61055C3.89493 2.61291 3.89764 2.61525 3.90037 2.61756C3.98623 2.69021 4.08499 2.80799 4.18839 2.99128C4.19117 2.99621 4.19402 3.0011 4.19695 3.00594C4.30473 3.184 4.42226 3.43267 4.54658 3.76194C4.69498 4.17289 4.83482 4.56102 4.96611 4.92635L4.96706 4.92897C5.09902 5.29042 5.22527 5.63473 5.3458 5.9619L5.34691 5.9649C5.46611 6.28276 5.5766 6.58592 5.67843 6.87443C5.6795 6.87744 5.68059 6.88045 5.6817 6.88344C5.75939 7.09197 5.83563 7.29615 5.91041 7.49597C5.63776 7.98166 5.36856 8.42466 5.10295 8.82549C4.80232 9.27916 4.50442 9.65903 4.21044 9.96899C3.92178 10.2677 3.63697 10.4874 3.35798 10.6387C3.09683 10.7804 2.83468 10.8468 2.56466 10.8468C2.40556 10.8468 2.21714 10.8286 1.99686 10.7877C1.79488 10.7491 1.5507 10.679 1.26135 10.5719C1.05253 10.4945 0.817687 10.5499 0.665382 10.7123C0.456018 10.9356 0.28853 11.1807 0.173673 11.4487C0.0617426 11.7099 0 11.9815 0 12.2598C0 12.5032 0.0505488 12.7385 0.148826 12.9613C0.244721 13.1861 0.387018 13.3815 0.567928 13.546C0.755983 13.7169 0.979083 13.8426 1.2238 13.9316C1.48666 14.0272 1.77378 14.0681 2.07475 14.0681C2.59991 14.0681 3.10351 13.9138 3.5784 13.6291C4.03964 13.3561 4.4834 12.9845 4.91171 12.5256C4.91254 12.5248 4.91337 12.5239 4.91419 12.523C5.33912 12.0616 5.75515 11.5188 6.16332 10.8978C6.37977 10.5731 6.59661 10.2319 6.81384 9.87422C6.98478 10.3002 7.14712 10.6884 7.30086 11.0384L7.30164 11.0401C7.5791 11.6659 7.86001 12.1973 8.14641 12.6269C8.14813 12.6295 8.14987 12.632 8.15163 12.6346C8.4489 13.0647 8.78202 13.4126 9.16056 13.643C9.55108 13.883 9.98741 13.9993 10.4548 13.9993C10.7603 13.9993 11.08 13.963 11.4123 13.8944C11.7498 13.8316 12.0902 13.7384 12.4333 13.6161C12.7761 13.4996 13.1147 13.3591 13.4491 13.1949C13.4515 13.1937 13.4539 13.1925 13.4563 13.1913C13.7918 13.0205 14.1079 12.8335 14.404 12.6299C14.6099 12.4883 14.6954 12.2263 14.6127 11.9906L14.4408 11.5007C14.3918 11.3611 14.2891 11.247 14.1555 11.1837C14.0218 11.1204 13.8684 11.1132 13.7294 11.1638C13.5484 11.2296 13.3874 11.2832 13.2457 11.3252C13.1086 11.3658 12.9788 11.3983 12.8561 11.4231C12.7384 11.4424 12.6143 11.4572 12.4838 11.4673L12.4821 11.4674C12.356 11.4775 12.2134 11.4828 12.0535 11.4828C11.8518 11.4828 11.6782 11.4554 11.528 11.4067C11.3946 11.3634 11.2539 11.2857 11.1062 11.1597C10.9574 11.0328 10.7967 10.8519 10.6272 10.6054C10.4577 10.3588 10.2762 10.0429 10.0838 9.6527C9.89025 9.25454 9.68079 8.78015 9.45539 8.22803C9.25747 7.7306 9.04074 7.16116 8.80515 6.51929C9.03864 6.06197 9.27125 5.63798 9.50287 5.24699C9.77038 4.80501 10.0386 4.43093 10.3062 4.12128C10.3072 4.12012 10.3082 4.11896 10.3092 4.11779C10.5723 3.80828 10.8298 3.58429 11.0786 3.43226L11.081 3.43078C11.3174 3.28465 11.5443 3.22124 11.7698 3.22124C11.8422 3.22124 11.9193 3.22726 12.0015 3.24025C12.0119 3.24189 12.0223 3.24323 12.0328 3.24427C12.0922 3.25021 12.1563 3.26544 12.2261 3.29339C12.2336 3.29639 12.2412 3.29923 12.2488 3.3019C12.3058 3.32185 12.3691 3.35439 12.4386 3.40558C12.4473 3.41199 12.4562 3.41816 12.4652 3.42405C12.5239 3.46215 12.5914 3.5212 12.6651 3.61131C12.7702 3.73978 12.9275 3.81429 13.0935 3.81429H13.1622C13.2725 3.81429 13.3803 3.78135 13.4717 3.71969C13.7857 3.50794 14.0368 3.23968 14.2049 2.9115L14.2059 2.90949C14.2064 2.90856 14.2068 2.90764 14.2073 2.90671C14.3615 2.59837 14.4462 2.2735 14.4462 1.93723C14.4462 1.68977 14.3987 1.44953 14.3053 1.22022C14.2116 0.969967 14.0636 0.751879 13.8671 0.570571C13.6775 0.39041 13.4524 0.255486 13.2031 0.159319C12.93 0.0480802 12.6318 0 12.3199 0C11.8052 0 11.3142 0.152068 10.8545 0.433146C10.4173 0.698317 10.0003 1.06547 9.60067 1.52042L9.60032 1.52081C9.20795 1.96836 8.82288 2.5055 8.44375 3.12751L8.44296 3.12881C8.2667 3.41978 8.09016 3.72544 7.91334 4.04572C7.89007 3.98466 7.86669 3.92361 7.84321 3.86256C7.67392 3.41671 7.50431 2.94464 7.3344 2.44624L7.33415 2.44551C7.18578 2.01227 7.03169 1.64144 6.86932 1.34188C6.71709 1.05079 6.54511 0.795623 6.34629 0.595736C6.15526 0.398056 5.93013 0.241353 5.66781 0.156416C5.45269 0.0850566 5.22787 0.0515699 4.99703 0.0515699C4.82602 0.0515699 4.61789 0.0788508 4.38966 0.120891L4.38705 0.121381C4.15709 0.164885 3.89134 0.228548 3.59197 0.310626C3.29082 0.38749 2.96007 0.481268 2.60018 0.591556C2.24014 0.70189 1.86052 0.82361 1.46139 0.956655Z" fill="var(--fill-0, #1484FF)"/>
</svg>
