<svg preserveAspectRatio="none" width="100%" height="100%" overflow="visible" style="display: block;" viewBox="0 0 13.8764 18" fill="none" xmlns="http://www.w3.org/2000/svg">
<path id="Union" fill-rule="evenodd" clip-rule="evenodd" d="M2.94433 3.9935C2.94433 1.78795 4.73228 0 6.93782 0C9.14337 0 10.9313 1.78795 10.9313 3.99349V9.58438C10.9313 11.7899 9.14337 13.5779 6.93782 13.5779C4.73228 13.5779 2.94433 11.7899 2.94433 9.58438V3.9935ZM5.35551 6.3895C5.35551 5.94839 5.7131 5.59081 6.15421 5.59081H7.72041C8.16152 5.59081 8.51911 5.94839 8.51911 6.3895C8.51911 6.83061 8.16152 7.1882 7.72041 7.1882H6.1542C5.7131 7.1882 5.35551 6.83061 5.35551 6.3895ZM5.93741 16.4767V16.9958C5.93741 17.2803 6.03332 17.5188 6.22514 17.7113C6.41696 17.9038 6.65465 18 6.93821 18C7.22177 18 7.45945 17.9038 7.65127 17.7113C7.84309 17.5188 7.939 17.2803 7.939 16.9958V16.4767C9.49024 16.2592 10.8079 15.5981 11.8921 14.4934C12.9763 13.3888 13.6352 12.0749 13.8687 10.5519C13.9021 10.2674 13.827 10.0247 13.6435 9.82383C13.4601 9.62299 13.2265 9.52257 12.943 9.52257C12.6594 9.52257 12.4217 9.6188 12.2299 9.81128C12.0381 10.0038 11.9088 10.2423 11.8421 10.5268C11.6086 11.6816 11.0331 12.6398 10.1157 13.4013C9.19833 14.1629 8.13916 14.5436 6.93821 14.5436C5.75393 14.5436 4.69893 14.1671 3.77319 13.4139C2.84746 12.6607 2.26783 11.6984 2.03431 10.5268C1.96759 10.2423 1.83832 10.0038 1.6465 9.81128C1.45468 9.6188 1.21699 9.52257 0.933434 9.52257C0.649875 9.52257 0.416357 9.62299 0.232877 9.82383C0.0493982 10.0247 -0.0256614 10.2674 0.00769843 10.5519C0.241217 12.1084 0.904244 13.4306 1.99678 14.5185C3.08931 15.6064 4.40286 16.2592 5.93741 16.4767Z" fill="var(--fill-0, #8765FF)"/>
</svg>
