<svg preserveAspectRatio="none" width="100%" height="100%" overflow="visible" style="display: block;" viewBox="0 0 19.9289 16.5" fill="none" xmlns="http://www.w3.org/2000/svg">
<path id="Union" d="M11 0C12.215 0 13.2002 0.985169 13.2002 2.2002V14.2998C13.2002 14.4562 13.1824 14.6087 13.1514 14.7559C13.1472 14.7756 13.1414 14.7949 13.1367 14.8145C13.0366 15.2317 12.8187 15.6017 12.5186 15.8887C12.5167 15.8904 12.5155 15.8928 12.5137 15.8945H12.5127C12.1183 16.2688 11.5867 16.5 11 16.5H2.2002C0.985169 16.5 0 15.5148 0 14.2998V2.2002C0 0.985169 0.985169 0 2.2002 0H11ZM19.3096 8.75879C20.1544 9.63137 20.1321 11.0238 19.2598 11.8691L15.4004 15.6094C15.1869 15.8162 14.9418 15.9719 14.6816 16.0752C15.0667 15.7043 15.3667 15.2336 15.5381 14.6875L17.7998 7.48145C17.8225 7.40907 17.8428 7.33634 17.8604 7.26367L19.3096 8.75879ZM15.3027 4.39258C16.1415 4.6558 16.7083 5.37485 16.8213 6.19141L16.833 6.20312C16.8743 6.5121 16.8505 6.8353 16.751 7.15234L14.4893 14.3584C14.4308 14.5446 14.3475 14.7164 14.248 14.874C14.281 14.687 14.2998 14.4943 14.2998 14.2979V4.39746C14.2998 4.28777 14.2946 4.17921 14.2842 4.07227L15.3027 4.39258ZM6.56348 11.6865C6.22161 11.6869 5.92853 11.7989 5.68457 12.0225C5.44061 12.246 5.31838 12.5149 5.31836 12.8291C5.31877 13.1437 5.44101 13.4132 5.68457 13.6367C5.92809 13.8602 6.22126 13.9717 6.56348 13.9717C6.90597 13.972 7.19893 13.8604 7.44238 13.6367C7.68594 13.4128 7.80762 13.1433 7.80762 12.8291C7.80801 12.5153 7.68634 12.2464 7.44238 12.0225C7.19849 11.7987 6.90561 11.6866 6.56348 11.6865ZM6.56348 3.11719C5.6818 3.11719 4.95003 3.34062 4.36914 3.78809C3.78824 4.23559 3.38873 4.76465 3.1709 5.37402L4.77441 6.00195C4.88893 5.69748 5.08296 5.3975 5.35742 5.10254C5.6321 4.80737 6.03444 4.66016 6.56348 4.66016C7.07195 4.66019 7.4689 4.78802 7.75391 5.04492C8.03896 5.302 8.18164 5.62622 8.18164 6.0166C8.18205 6.3406 8.07075 6.62879 7.84766 6.88086C7.62443 7.13299 7.29932 7.43066 6.87402 7.77344C6.3871 8.17361 6.06855 8.54312 5.91797 8.88086C5.76745 9.2187 5.69239 9.77299 5.69238 10.5439H7.48145C7.48187 9.98263 7.53583 9.58502 7.64453 9.35156C7.75324 9.1181 8.06203 8.77759 8.57031 8.33008C9.04789 7.90199 9.39828 7.51887 9.62109 7.18066C9.84385 6.84249 9.95508 6.435 9.95508 5.95898C9.95538 5.1788 9.66235 4.51021 9.07617 3.95312C8.48992 3.39606 7.65248 3.11722 6.56348 3.11719Z" fill="var(--fill-0, #FD8323)"/>
</svg>
