<svg width="60.55" height="60.55" viewBox="-1.92 -1.92 60.55 60.55" fill="none" xmlns="http://www.w3.org/2000/svg">
<g id="Freeleaps">
<g id="Frame 2087328428">
<g id="Frame 2087328418">
<g id="icon / star">
<g id="star-1--reward-rating-rate-social-star-media-favorite-like-stars">
<path id="Union" d="M28.3952 6.30664C28.7608 6.30664 29.1193 6.41155 29.4274 6.6084C29.7316 6.80274 29.9746 7.07907 30.1286 7.40527L30.1364 7.4209L30.1432 7.43555L35.778 18.8115L35.78 18.8154C35.9057 19.0968 36.1045 19.3488 36.3649 19.5391C36.617 19.7232 36.9162 19.8408 37.2341 19.876H37.235H37.236L49.6413 21.7148L49.6852 21.7207L49.7292 21.7256C50.0851 21.7602 50.4244 21.8936 50.7087 22.1113C51.003 22.3367 51.2256 22.6426 51.3493 22.9912L51.3503 22.9922C51.474 23.3406 51.494 23.7183 51.4079 24.0791C51.3219 24.438 51.1332 24.7654 50.8659 25.0205L50.8591 25.0273L41.7956 33.7725L41.7741 33.792L41.7653 33.7998C41.5804 33.9755 41.4174 34.2027 41.3102 34.4756L41.279 34.5635L41.2682 34.5957H41.2692C41.1793 34.8786 41.1541 35.1862 41.2087 35.4932V35.4941L43.3727 48.1592L43.3747 48.168L43.3766 48.1777C43.4361 48.5342 43.395 48.8994 43.2595 49.2334V49.2344C43.1224 49.5723 42.8931 49.8653 42.5974 50.0801C42.3009 50.2948 41.9508 50.4219 41.5866 50.4473H41.5847C41.2227 50.4725 40.8568 50.3952 40.5339 50.2236L40.5309 50.2217L29.3522 44.3135L29.2917 44.2812L29.2292 44.2549L29.0319 44.1807C28.8971 44.1376 28.7568 44.1078 28.613 44.0928L28.3962 44.0811C28.1036 44.0811 27.8198 44.1431 27.5622 44.2549L27.4997 44.2822L27.4391 44.3135L16.2604 50.2217L16.2497 50.2266C15.9689 50.3742 15.6573 50.452 15.3415 50.4521L15.2048 50.4473L15.069 50.4326C14.7539 50.3884 14.4532 50.2678 14.194 50.0801C13.8984 49.8655 13.6692 49.5726 13.5319 49.2344V49.2334L13.485 49.1055C13.3865 48.8037 13.3623 48.4816 13.4167 48.167L13.4177 48.1582L13.4186 48.1592L15.5827 35.4941L15.5847 35.4824L15.5827 35.4814C15.635 35.1759 15.6121 34.8625 15.5143 34.5693C15.4155 34.273 15.2454 34.0093 15.0231 33.7988H15.0241L15.0036 33.7793L5.93231 25.0273L5.9245 25.0205L5.8288 24.9209C5.61276 24.6829 5.45879 24.3941 5.38348 24.0801C5.29712 23.7196 5.31721 23.3415 5.4411 22.9922C5.56505 22.6429 5.78841 22.3368 6.0827 22.1113L6.08173 22.1104C6.36603 21.8927 6.7062 21.7602 7.06219 21.7256L7.10614 21.7207L7.15009 21.7148L19.5544 19.876L19.5554 19.877V19.876L19.5563 19.877V19.876C19.877 19.8407 20.1761 19.7219 20.4265 19.5391C20.6822 19.3522 20.8833 19.1022 21.0114 18.8154L21.0134 18.8115L26.6481 7.43555L26.655 7.4209L26.6628 7.40527C26.8168 7.07909 27.0598 6.80272 27.364 6.6084C27.6719 6.41167 28.0297 6.30672 28.3952 6.30664Z" stroke="#0D1637" stroke-width="3.54938"/>
</g>
</g>
</g>
</g>
</g>
</svg>
