<svg width="63.29" height="63.29" viewBox="-5.7 -5.7 63.29 63.29" fill="none" xmlns="http://www.w3.org/2000/svg">
<g id="Freeleaps">
<g id="Frame 2087328428">
<g id="User-Circle-Single--Streamline-Flex.svg">
<g id="user-circle-single--circle-geometric-human-person-single-user">
<path id="Subtract" fill-rule="evenodd" clip-rule="evenodd" d="M25.9259 51.8519C42.5185 51.8519 51.8519 42.5185 51.8519 25.9259C51.8519 9.33333 42.5185 0 25.9259 0C9.33333 0 0 9.33333 0 25.9259C0 42.5185 9.33333 51.8519 25.9259 51.8519ZM39.3948 42.6993C38.4519 40.9422 37.167 39.3741 35.6007 38.0941C32.8704 35.8623 29.4525 34.6432 25.9262 34.6432C22.3999 34.6432 18.9821 35.8623 16.2518 38.0941C14.6855 39.3741 13.4008 40.9422 12.4575 42.6993C15.5404 44.9152 19.9247 46.2963 25.9263 46.2963C31.9278 46.2963 36.312 44.9152 39.3948 42.6993ZM34.6485 19.514C34.6485 25.0981 31.5075 28.2391 25.9234 28.2391C20.3394 28.2391 17.1983 25.0981 17.1983 19.514C17.1983 13.93 20.3394 10.789 25.9234 10.789C31.5075 10.789 34.6485 13.93 34.6485 19.514Z" fill="#141B34"/>
</g>
</g>
</g>
</g>
</svg>
