<svg width="62.01" height="62.01" viewBox="-2.66 -2.61 62.01 62.01" fill="none" xmlns="http://www.w3.org/2000/svg">
<g id="Freeleaps">
<g id="Frame 2087328428">
<g id="Frame 2087328418">
<g id="icon / eye">
<path id="Vector" d="M4.73483 18.9299C4.73483 18.9299 15.3289 7.09863 28.3974 7.09863C41.4657 7.09863 52.0599 18.9299 52.0599 18.9299" stroke="#141B34" stroke-width="3.54938" stroke-linecap="round"/>
<path id="Vector_2" d="M50.9809 30.8675C51.7003 31.8762 52.0599 32.3807 52.0599 33.1273C52.0599 33.8738 51.7003 34.3783 50.9809 35.387C47.7484 39.9198 39.4932 49.691 28.3974 49.691C17.3015 49.691 9.04639 39.9198 5.81394 35.387C5.09453 34.3783 4.73483 33.8738 4.73483 33.1273C4.73483 32.3807 5.09453 31.8762 5.81394 30.8675C9.04639 26.3347 17.3015 16.5635 28.3974 16.5635C39.4932 16.5635 47.7484 26.3347 50.9809 30.8675Z" stroke="#141B34" stroke-width="3.54938"/>
<path id="Vector_3" d="M35.4938 33.1271C35.4938 29.2064 32.3157 26.0283 28.3951 26.0283C24.4744 26.0283 21.2963 29.2064 21.2963 33.1271C21.2963 37.0477 24.4744 40.2259 28.3951 40.2259C32.3157 40.2259 35.4938 37.0477 35.4938 33.1271Z" stroke="#141B34" stroke-width="3.54938"/>
</g>
</g>
</g>
</g>
</svg>
