<svg width="62.01" height="62.01" viewBox="-2.61 -2.66 62.01 62.01" fill="none" xmlns="http://www.w3.org/2000/svg">
<g id="Freeleaps">
<g id="Frame 2087328428">
<g id="Frame 2087328418">
<g id="icon / all achive">
<g id="align-box-bottom-center">
<path id="Vector" d="M7.09875 26.0287C7.09875 17.1559 7.09876 12.7195 9.35832 9.60944C10.0881 8.60503 10.9714 7.72174 11.9758 6.99198C15.0858 4.73242 19.5222 4.73242 28.3951 4.73242C37.2678 4.73242 41.7043 4.73242 44.8143 6.99198C45.8187 7.72174 46.7021 8.60503 47.4318 9.60944C49.6913 12.7195 49.6913 17.1559 49.6913 26.0287V30.7612C49.6913 39.634 49.6913 44.0705 47.4318 47.1804C46.7021 48.1849 45.8187 49.0682 44.8143 49.798C41.7043 52.0575 37.2678 52.0575 28.3951 52.0575C19.5222 52.0575 15.0858 52.0575 11.9758 49.798C10.9714 49.0682 10.0881 48.1849 9.35832 47.1804C7.09876 44.0705 7.09875 39.634 7.09875 30.7612V26.0287Z" stroke="#141B34" stroke-width="3.54938" stroke-linecap="round" stroke-linejoin="round"/>
<path id="Vector_2" d="M37.8624 28.3955H18.9323M31.9467 40.2268H24.848" stroke="#141B34" stroke-width="3.54938" stroke-linecap="round" stroke-linejoin="round"/>
</g>
</g>
</g>
</g>
</g>
</svg>
