<svg width="64.08" height="64.08" viewBox="-3.64 -3.64 64.08 64.08" fill="none" xmlns="http://www.w3.org/2000/svg">
<g id="Freeleaps">
<g id="Frame 2087328428">
<g id="Frame 2087328418">
<g id="icon / ongoing">
<g id="user-multiple-circle--close-geometric-human-multiple-person-up-user-circle">
<path id="Vector" d="M41.3482 32.1609C37.9982 32.1609 35.2824 29.4451 35.2824 26.0951C35.2824 22.745 37.9982 20.0293 41.3482 20.0293C44.6981 20.0293 47.4141 22.745 47.4141 26.0951C47.4141 29.4451 44.6981 32.1609 41.3482 32.1609Z" stroke="black" stroke-width="3.54938" stroke-linecap="round" stroke-linejoin="round"/>
<path id="Vector_2" d="M32.5322 41.5235C33.3678 40.6405 34.3347 39.8843 35.4031 39.284C37.2175 38.2648 39.2636 37.7295 41.3447 37.7295C43.4259 37.7295 45.4719 38.2648 47.2863 39.284C48.0711 39.725 48.8012 40.2498 49.4647 40.8477" stroke="black" stroke-width="3.54938" stroke-linecap="round" stroke-linejoin="round"/>
<path id="Vector_3" d="M21.7198 30.215C17.5685 30.215 14.2031 26.8496 14.2031 22.6983C14.2031 18.547 17.5685 15.1816 21.7198 15.1816C25.8712 15.1816 29.2365 18.547 29.2365 22.6983C29.2365 26.8496 25.8712 30.215 21.7198 30.215Z" stroke="black" stroke-width="3.54938" stroke-linecap="round" stroke-linejoin="round"/>
<path id="Vector_4" d="M35.8051 51.6816C35.4302 47.192 34.3114 44.2399 33.6981 43.2004C32.3922 40.9803 30.5569 39.1451 28.3686 37.8718C26.1803 36.5985 23.7125 35.9297 21.2025 35.9297C18.6926 35.9297 16.2248 36.5985 14.0365 37.8718C12.2891 38.8886 10.7668 40.2633 9.55941 41.9067L8.79395 43.0524" stroke="black" stroke-width="3.54938" stroke-linecap="round" stroke-linejoin="round"/>
<path id="Vector_5" d="M28.3945 52.8836C14.87 52.8836 3.90625 41.9201 3.90625 28.3954C3.90625 14.871 14.87 3.90723 28.3945 3.90723C41.9191 3.90723 52.8827 14.871 52.8827 28.3954C52.8827 41.9201 41.9191 52.8836 28.3945 52.8836Z" stroke="black" stroke-width="3.54938" stroke-linecap="round" stroke-linejoin="round"/>
</g>
</g>
</g>
</g>
</g>
</svg>
