<svg width="64.08" height="64.08" viewBox="-3.64 -3.64 64.08 64.08" fill="none" xmlns="http://www.w3.org/2000/svg">
<g id="Freeleaps">
<g id="Frame 2087328428">
<g id="Frame 2087328418">
<g id="icon / mixmize">
<g id="maximize-2">
<path id="Vector 2089" d="M27.6906 29.2542L42.5229 14.4219" stroke="#0D1637" stroke-width="3.54938" stroke-linecap="round" stroke-linejoin="round"/>
<path id="Intersect" d="M31.2206 43.435C31.846 43.4538 32.4752 43.4651 33.1043 43.4651C36.6457 43.4651 40.123 43.1411 43.5062 42.7644C45.7321 42.5084 47.8055 41.5056 49.3881 39.9196C50.9707 38.3335 51.9691 36.2579 52.2202 34.0315C52.5781 30.6634 52.8833 27.2087 52.8833 23.6862C52.8833 20.1636 52.5819 16.7089 52.2202 13.3408C51.9689 11.1138 50.97 9.03778 49.3867 7.45167C47.8033 5.86557 45.729 4.86311 43.5024 4.60797C40.123 4.23122 36.6495 3.90723 33.1043 3.90723C29.563 3.90723 26.0856 4.23122 22.7025 4.60797C20.4766 4.86391 18.4032 5.86672 16.8206 7.45275C15.2379 9.03878 14.2396 11.1144 13.9885 13.3408C13.6306 16.7089 13.3254 20.1599 13.3254 23.6862C13.3254 24.402 13.3367 25.1102 13.3631 25.8185" stroke="#0D1637" stroke-width="3.54938" stroke-linecap="round" stroke-linejoin="round"/>
<path id="Intersect_2" d="M4.22332 48.3894C4.4569 50.5632 6.20122 52.3075 8.37125 52.5487C9.9837 52.7295 11.6376 52.884 13.3254 52.884C15.0132 52.884 16.6671 52.7295 18.2796 52.5487C19.3392 52.426 20.326 51.9481 21.0792 51.1928C21.8325 50.4375 22.3077 49.4494 22.4275 48.3894C22.6008 46.7883 22.7439 45.1419 22.7439 43.4654C22.7439 41.7889 22.6008 40.1426 22.4275 38.5414C22.3077 37.4815 21.8325 36.4933 21.0792 35.738C20.326 34.9827 19.3392 34.5048 18.2796 34.3822C16.6357 34.1785 14.9817 34.0666 13.3254 34.0469C11.6376 34.0469 9.9837 34.2013 8.37125 34.3822C7.31163 34.5048 6.3248 34.9827 5.57156 35.738C4.81832 36.4933 4.34309 37.4815 4.22332 38.5414C4.03018 40.1759 3.92454 41.8196 3.90686 43.4654C3.90686 45.1419 4.05002 46.7883 4.22332 48.3894Z" stroke="#0D1637" stroke-width="3.54938" stroke-linecap="round" stroke-linejoin="round"/>
<path id="Vector" d="M42.5229 26.2671C43.7096 22.7145 43.7096 17.9788 42.5229 14.4224C38.9702 13.2394 34.2346 13.2394 30.6819 14.4224" stroke="#0D1637" stroke-width="3.54938" stroke-linecap="round" stroke-linejoin="round"/>
</g>
</g>
</g>
</g>
</g>
</svg>
