<svg width="59.88" height="59.88" viewBox="-4.04 -3.99 59.88 59.88" fill="none" xmlns="http://www.w3.org/2000/svg">
<g id="Freeleaps">
<g id="Frame 2087328428">
<g id="Bag-Suitcase-4--Streamline-Flex.svg">
<g id="bag-suitcase-4--product-business-briefcase">
<path id="Union" fill-rule="evenodd" clip-rule="evenodd" d="M19.8138 11.5748C19.8138 9.01795 21.8866 6.9452 24.4435 6.9452H27.4064C29.9633 6.9452 32.0361 9.01795 32.0361 11.5748V12.1362C30.0167 12.0934 27.9925 12.0934 26.0288 12.0934H25.8203C23.8569 12.0934 21.833 12.0934 19.8138 12.1362V11.5748ZM14.2583 12.3999V11.5748C14.2583 5.94972 18.8184 1.38965 24.4435 1.38965H27.4064C33.0316 1.38965 37.5915 5.94972 37.5915 11.5748V12.3999C39.1874 12.5298 40.7392 12.7147 42.2122 12.9779C45.2504 13.5209 47.6411 15.8421 48.2915 18.8505C48.62 20.3684 48.8163 21.8446 48.9341 23.3898L27.5503 30.5283C26.5037 30.8777 25.3718 30.8777 24.3252 30.5283L2.91571 23.3812C3.0335 21.8392 3.22994 20.3656 3.55756 18.8505C4.20807 15.8421 6.59888 13.5209 9.63703 12.9779C11.11 12.7146 12.6623 12.5298 14.2583 12.3999ZM2.73938 31.1398C2.73937 30.1039 2.73936 29.131 2.74671 28.2056L22.8592 34.9197C24.8574 35.5867 27.0181 35.5867 29.0163 34.9197L49.1026 28.2144C49.1096 29.1372 49.1096 30.1074 49.1096 31.14V31.4168C49.11 36.3971 49.11 39.9222 48.2915 43.7067C47.6411 46.7152 45.2504 49.0363 42.2122 49.5793C37.2626 50.4637 31.4178 50.4637 26.0288 50.4637H25.8203C20.4313 50.4637 14.5865 50.4637 9.63703 49.5793C6.59888 49.0363 4.20807 46.7152 3.55756 43.7067C2.73927 39.9226 2.73931 36.3971 2.73938 31.4169V31.1398Z" fill="#141B34"/>
</g>
</g>
</g>
</g>
</svg>
