<svg width="57.93" height="57.93" viewBox="-3.01 -3.01 57.93 57.93" fill="none" xmlns="http://www.w3.org/2000/svg">
<g id="Freeleaps">
<g id="Frame 2087328428">
<g id="Archive-Up-Minimlistic--Streamline-Solar">
<path id="Vector" d="M46.5495 5.55889C43.011 2.16113 37.3154 2.16113 25.9247 2.16113C14.5338 2.16113 8.83841 2.16113 5.29975 5.55889C3.46938 7.31634 2.58576 9.62786 2.15918 12.9636C3.44147 11.5932 4.98221 10.4516 6.71233 9.60517C8.60066 8.68132 10.6227 8.30669 12.8615 8.13105C15.0244 7.96138 17.6859 7.96141 20.9401 7.96145H30.9091C34.1635 7.96141 36.8249 7.96138 38.9877 8.13105C41.2267 8.30669 43.2488 8.68132 45.1369 9.60517C46.867 10.4516 48.4079 11.5932 49.69 12.9636C49.2636 9.62786 48.3799 7.31634 46.5495 5.55889Z" fill="#141B34"/>
<path id="Vector_2" fill-rule="evenodd" clip-rule="evenodd" d="M2.15918 30.2472C2.15918 23.4409 2.15918 20.0379 3.45432 17.4383C4.59354 15.1516 6.41139 13.2924 8.64726 12.1273C11.1891 10.8027 14.5166 10.8027 21.1715 10.8027H30.6777C37.3327 10.8027 40.6601 10.8027 43.2021 12.1273C45.4379 13.2924 47.2557 15.1516 48.3948 17.4383C49.69 20.0379 49.69 23.4409 49.69 30.2472C49.69 37.0535 49.69 40.4565 48.3948 43.0562C47.2557 45.3429 45.4379 47.202 43.2021 48.367C40.6601 49.6916 37.3327 49.6916 30.6777 49.6916H21.1715C14.5166 49.6916 11.1891 49.6916 8.64726 48.367C6.41139 47.202 4.59354 45.3429 3.45432 43.0562C2.15918 40.4565 2.15918 37.0535 2.15918 30.2472ZM27.1849 21.6666C26.8507 21.3246 26.3973 21.1326 25.9246 21.1326C25.4519 21.1326 24.9985 21.3246 24.6643 21.6666L18.7229 27.743C18.0268 28.4549 18.0268 29.6089 18.7229 30.3208C19.419 31.0327 20.5475 31.0327 21.2435 30.3208L24.1422 27.3565V37.5388C24.1422 38.5456 24.9402 39.3618 25.9246 39.3618C26.909 39.3618 27.707 38.5456 27.707 37.5388V27.3565L30.6057 30.3208C31.3018 31.0327 32.4302 31.0327 33.1262 30.3208C33.8223 29.6089 33.8223 28.4549 33.1262 27.743L27.1849 21.6666Z" fill="#141B34"/>
</g>
</g>
</g>
</svg>
