<svg width="63.84" height="63.84" viewBox="-3.52 -3.52 63.84 63.84" fill="none" xmlns="http://www.w3.org/2000/svg">
<g id="Freeleaps">
<g id="Frame 2087328428">
<g id="Frame 2087328418">
<g id="User-Single-Neutral-Male--Streamline-Core.svg">
<g id="user-single-neutral-male--close-geometric-human-person-single-up-user-male">
<path id="Vector" d="M51.6787 52.8826C50.0967 47.9503 46.9897 43.6479 42.8056 40.5956C38.621 37.5432 33.5754 35.8984 28.3959 35.8984C23.2164 35.8984 18.1708 37.5432 13.9863 40.5956C9.80195 43.6479 6.69493 47.9503 5.11328 52.8826H51.6787Z" stroke="black" stroke-width="3.54938" stroke-linecap="round" stroke-linejoin="round"/>
<path id="Vector_2" d="M28.3943 35.9288C37.1999 35.9288 44.3384 28.7905 44.3384 19.9849C44.3384 11.1793 37.1999 4.04102 28.3943 4.04102C19.5887 4.04102 12.4504 11.1793 12.4504 19.9849C12.4504 28.7905 19.5887 35.9288 28.3943 35.9288Z" stroke="black" stroke-width="3.54938" stroke-linecap="round" stroke-linejoin="round"/>
<path id="Ellipse 592" d="M33.6001 26.1543C33.6001 26.1543 32.2772 28.7574 28.3939 28.7574C24.5107 28.7574 23.1877 26.1543 23.1877 26.1543" stroke="black" stroke-width="3.54938" stroke-linecap="round" stroke-linejoin="round"/>
<path id="Intersect" d="M44.0487 16.9493C44.0129 16.9495 43.9775 16.9497 43.9421 16.9497C39.3075 16.9497 35.1466 14.9221 32.298 11.7056C29.4494 14.9221 25.2885 16.9498 20.654 16.9498C17.9628 16.9498 15.4312 16.266 13.2236 15.0628C15.2977 8.66605 21.3054 4.04102 28.3933 4.04102C36.1608 4.04102 42.631 9.59558 44.0487 16.9493Z" stroke="black" stroke-width="3.54938" stroke-linecap="round" stroke-linejoin="round"/>
</g>
</g>
</g>
</g>
</g>
</svg>
