<svg width="64.08" height="64.08" viewBox="-3.69 -3.64 64.08 64.08" fill="none" xmlns="http://www.w3.org/2000/svg">
<g id="Freeleaps">
<g id="Frame 2087328428">
<g id="Frame 2087328418">
<g id="icon / recruiting">
<g id="investment-selection">
<path id="Vector 2494" d="M25.9005 15.9589C25.7351 15.4909 25.4799 15.0654 25.1556 14.7031C24.4657 13.9323 23.4632 13.4473 22.3474 13.4473H19.4313C17.574 13.4473 16.0684 14.9529 16.0684 16.8102C16.0684 18.3906 17.1688 19.7577 18.7126 20.0955L23.1525 21.0667C24.8821 21.445 26.1149 22.9777 26.1149 24.7482C26.1149 26.8289 24.4281 28.517 22.3474 28.517H19.8358C18.1954 28.517 16.7999 27.4686 16.2827 26.0054" stroke="black" stroke-width="3.54938" stroke-linecap="round" stroke-linejoin="round"/>
<path id="Vector 2495" d="M21.0918 13.4481V9.68066" stroke="black" stroke-width="3.54938" stroke-linecap="round" stroke-linejoin="round"/>
<path id="Vector 2496" d="M21.0918 32.286V28.5186" stroke="black" stroke-width="3.54938" stroke-linecap="round" stroke-linejoin="round"/>
<path id="Vector" d="M28.2781 52.8779V33.0989C28.2781 31.8499 28.7743 30.6521 29.6575 29.769C30.5406 28.8858 31.7384 28.3896 32.9874 28.3896C34.2364 28.3896 35.4342 28.8858 36.3174 29.769C37.2005 30.6521 37.6967 31.8499 37.6967 33.0989V43.4594H45.2317C47.2299 43.4594 49.1464 44.2532 50.5596 45.6663C51.9724 47.0791 52.7665 48.9956 52.7665 50.9942V52.8779" stroke="black" stroke-width="3.54938" stroke-linecap="round" stroke-linejoin="round"/>
<path id="Ellipse 344" d="M21.0955 38.0543C11.6674 38.0543 4.02441 30.4113 4.02441 20.9832C4.02441 11.5551 11.6674 3.91211 21.0955 3.91211C30.5236 3.91211 38.1666 11.5551 38.1666 20.9832C38.1666 21.7758 38.1126 22.5557 38.0081 23.3196" stroke="black" stroke-width="3.54938" stroke-linecap="round"/>
</g>
</g>
</g>
</g>
</g>
</svg>
