<svg width="63.17" height="63.17" viewBox="-5.59 -5.84 63.17 63.17" fill="none" xmlns="http://www.w3.org/2000/svg">
<g id="Freeleaps">
<g id="Frame 2087328428">
<g id="Frame 45263">
<path id="Union" d="M28.9004 9.94434C28.2599 11.4668 27.9053 13.1371 27.9053 14.8896C27.9053 21.9911 33.713 27.7477 40.877 27.748C41.7847 27.748 42.6712 27.6554 43.5264 27.4795C43.5797 29.9781 43.4752 32.4793 43.211 34.9678C42.4522 42.1111 36.4258 47.5312 29.2422 47.5312H1.16995C0.136021 47.5312 -0.306793 46.2184 0.515653 45.5918L4.46487 42.582C2.30836 40.2389 0.866825 37.2126 0.507841 33.832C0.148221 30.4453 0.148198 27.0293 0.507841 23.6426L0.628934 22.5078C1.38752 15.3646 7.4134 9.94467 14.5967 9.94434H28.9004ZM9.94534 31.5234C8.7524 31.5237 7.78524 32.4906 7.78518 33.6836C7.78518 34.8766 8.75237 35.8435 9.94534 35.8438H31.8985C33.0915 35.8435 34.0586 34.8766 34.0586 33.6836C34.0586 32.4906 33.0914 31.5237 31.8985 31.5234H9.94534ZM9.94534 21.6318C8.7524 21.6321 7.78524 22.599 7.78518 23.792C7.78518 24.985 8.75237 25.9519 9.94534 25.9521H22.917C24.1102 25.9521 25.0782 24.9852 25.0782 23.792C25.0781 22.5988 24.1102 21.6318 22.917 21.6318H9.94534ZM41.4942 4.00977C47.2176 4.01003 51.8572 8.64838 51.8574 14.3701C51.8574 20.092 47.2177 24.7312 41.4942 24.7314C35.7705 24.7313 31.1299 20.0921 31.1299 14.3701C31.1301 8.64828 35.7706 4.00987 41.4942 4.00977ZM41.4961 10.2266C40.3515 10.2267 39.4229 11.1551 39.4229 12.2998V16.4424C39.4229 17.5871 40.3515 18.5155 41.4961 18.5156C42.6406 18.5154 43.5684 17.587 43.5684 16.4424V12.2998C43.5684 11.1552 42.6406 10.2268 41.4961 10.2266Z" fill="#141B34"/>
</g>
</g>
</g>
</svg>
