<svg width="60.98" height="60.98" viewBox="-4.59 -4.59 60.98 60.98" fill="none" xmlns="http://www.w3.org/2000/svg">
<g id="Freeleaps">
<g id="Frame 2087328428">
<g id="Mail-Send-Email-Message-Circle--Streamline-Flex.svg">
<g id="mail-send-email-message-circle--send-email-paper-airplane-deliver">
<path id="Subtract" fill-rule="evenodd" clip-rule="evenodd" d="M7.4897 7.48866C11.8657 3.11267 18.1805 0.927734 25.9288 0.927734C33.677 0.927734 39.9917 3.11267 44.368 7.48866C48.744 11.8646 50.9288 18.1795 50.9288 25.9277C50.9288 33.676 48.744 39.9907 44.368 44.367C39.9917 48.7429 33.677 50.9277 25.9288 50.9277C18.1805 50.9277 11.8657 48.7429 7.4897 44.367C3.1137 39.9907 0.928772 33.676 0.928772 25.9277C0.928772 18.1795 3.1137 11.8646 7.4897 7.48866ZM39.4506 16.8096C39.2751 14.4095 37.3906 12.525 34.9905 12.3493C29.429 11.9422 19.7977 13.0772 10.3553 21.0851C8.04162 23.0473 7.86355 26.7058 10.4568 28.6793C12.0231 29.8714 14.1393 31.2047 16.5001 32.027L24.3459 24.1804C25.2499 23.2763 26.7155 23.2763 27.6196 24.1802C28.5236 25.0841 28.5237 26.5498 27.6197 27.4538L19.7734 35.301C20.5957 37.6614 21.9288 39.777 23.1207 41.3433C25.0943 43.9366 28.7528 43.7585 30.715 41.4448C38.7228 32.0024 39.8577 22.3711 39.4506 16.8096Z" fill="#141B34"/>
</g>
</g>
</g>
</g>
</svg>
