<svg width="60.61" height="60.61" viewBox="-3.65 -2.5 60.61 60.61" fill="none" xmlns="http://www.w3.org/2000/svg">
<g id="Freeleaps">
<g id="Frame 2087328428">
<g id="Frame 2087328418">
<g id="icon / reply">
<path id="Vector 2505" d="M3.54938 17.7471L2.29448 16.4922C1.60142 17.1852 1.60142 18.3089 2.29448 19.002L3.54938 17.7471ZM21.2963 47.9168C20.3162 47.9168 19.5216 48.7114 19.5216 49.6915C19.5216 50.6716 20.3162 51.4662 21.2963 51.4662V49.6915V47.9168ZM3.54938 17.7471V19.5217H39.0432V17.7471V15.9724H3.54938V17.7471ZM49.6914 28.3952H47.9167V39.0434H49.6914H51.466V28.3952H49.6914ZM39.0432 49.6915V47.9168H21.2963V49.6915V51.4662H39.0432V49.6915ZM3.54938 17.7471L4.80427 19.002L17.2271 6.57912L15.9722 5.32422L14.7173 4.06932L2.29448 16.4922L3.54938 17.7471ZM3.54938 17.7471L2.29448 19.002L14.7173 31.4248L15.9722 30.1699L17.2271 28.915L4.80427 16.4922L3.54938 17.7471ZM49.6914 39.0434H47.9167C47.9167 43.944 43.9439 47.9168 39.0432 47.9168V49.6915V51.4662C45.9041 51.4662 51.466 45.9043 51.466 39.0434H49.6914ZM39.0432 17.7471V19.5217C43.9439 19.5217 47.9167 23.4945 47.9167 28.3952H49.6914H51.466C51.466 21.5343 45.9041 15.9724 39.0432 15.9724V17.7471Z" fill="#3D455F"/>
</g>
</g>
</g>
</g>
</svg>
