<svg preserveAspectRatio="none" width="100%" height="100%" overflow="visible" style="display: block;" viewBox="0 0 24 24" fill="none" xmlns="http://www.w3.org/2000/svg">
<g id="Ruler-Cross-Pen--Streamline-Solar">
<path id="Vector" d="M4.04537 5.49167L5.49167 4.04537C6.85525 2.68179 7.53704 2 8.38426 2C9.23148 2 9.91327 2.68179 11.2769 4.04537L8.86636 6.45586L4.04537 11.2769C2.6818 9.91337 2 9.23148 2 8.38426C2 7.53704 2.68179 6.85525 4.04537 5.49167Z" fill="var(--fill-0, #2252F8)"/>
<path id="Vector_2" d="M19.9542 18.5083L18.5079 19.9546C17.1444 21.3182 16.4626 22 15.6153 22C14.7681 22 14.0863 21.3182 12.7228 19.9546L17.5437 15.1336L19.9542 12.7231C21.3178 14.0867 21.9996 14.7685 21.9996 15.6157C21.9996 16.463 21.3178 17.1448 19.9542 18.5083Z" fill="var(--fill-0, #2252F8)"/>
<path id="Vector_3" d="M11.4001 18.1612L18.796 10.7653C17.7894 10.3464 16.5972 9.65816 15.4697 8.53064C14.342 7.40294 13.6537 6.21054 13.2348 5.20386L5.83882 12.5999C5.26169 13.1771 4.97307 13.4657 4.7249 13.7838C4.43213 14.1592 4.18114 14.5653 3.97634 14.995C3.80273 15.3593 3.67368 15.7465 3.41556 16.5208L2.05445 20.6042C1.92743 20.9852 2.0266 21.4053 2.31063 21.6894C2.59466 21.9734 3.01478 22.0726 3.39584 21.9456L7.47918 20.5844C8.25351 20.3263 8.6407 20.1973 9.00498 20.0237C9.43469 19.8189 9.84082 19.5679 10.2162 19.2751C10.5343 19.0269 10.823 18.7383 11.4001 18.1612Z" fill="var(--fill-0, #2252F8)"/>
<path id="Vector_4" d="M20.8477 8.71306C22.3834 7.17735 22.3834 4.68748 20.8477 3.15178C19.312 1.61607 16.8221 1.61607 15.2864 3.15178L14.3994 4.03882C14.4116 4.0755 14.4241 4.11268 14.4372 4.15035C14.7623 5.0875 15.3758 6.31601 16.5298 7.47002C17.6838 8.62403 18.9123 9.23749 19.8495 9.56262C19.887 9.57563 19.924 9.58817 19.9605 9.60026L20.8477 8.71306Z" fill="var(--fill-0, #2252F8)"/>
</g>
</svg>
