<svg width="200" height="41" viewBox="0 0 200 41" fill="none" xmlns="http://www.w3.org/2000/svg">
<g clip-path="url(#clip0_1_11065)">
<path d="M5.45619 13.7064L0 19.1625L5.45619 24.6187L10.9124 19.1625L5.45619 13.7064Z" fill="white"/>
<path d="M12.3117 6.85311L6.85547 12.3093L12.3117 17.7655L17.7678 12.3093L12.3117 6.85311Z" fill="white"/>
<path d="M12.3077 20.5573L6.85156 26.0135L12.3077 31.4696L17.7639 26.0135L12.3077 20.5573Z" fill="white"/>
<path d="M19.1603 27.4124L13.7041 32.8686L19.1603 38.3248L24.6165 32.8686L19.1603 27.4124Z" fill="white"/>
<path d="M19.1649 13.7053L13.7087 19.1615L19.1649 24.6177L24.6211 19.1615L19.1649 13.7053Z" fill="white"/>
<path d="M19.1603 5.11889e-05L13.7041 5.45624L19.1603 10.9124L24.6165 5.45624L19.1603 5.11889e-05Z" fill="white"/>
<path d="M33.2744 5.84201H49.7152V9.57281H37.3841V17.261H48.7249V20.9918H37.3841V32.4849H33.2744V5.84201Z" fill="white"/>
<path d="M52.4766 13.7208H56.3196V15.928H56.9291C57.5385 14.3683 58.8696 13.6446 60.8864 13.6446H63.1317V17.185H60.734C58.184 17.185 56.3958 18.5542 56.3958 21.447V32.4851H52.4766V13.7228V13.7208Z" fill="white"/>
<path d="M65.2803 23.3494V22.8924C65.2803 17.0305 69.1253 13.1875 74.6424 13.1875C80.1594 13.1875 83.6997 16.9924 83.6997 22.7019V24.1854H69.2757C69.39 27.4972 71.7115 29.5902 74.8709 29.5902C77.8399 29.5902 79.133 28.0686 79.9328 26.3164L83.2066 27.9904C82.0639 30.1595 79.8567 33.0142 74.7947 33.0142C69.0853 33.0142 65.2803 29.1692 65.2803 23.3474V23.3494ZM79.7424 21.1803C79.5139 18.3637 77.5352 16.6516 74.6043 16.6516C71.6734 16.6516 69.6947 18.3637 69.3138 21.1803H79.7424Z" fill="white"/>
<path d="M86.8271 23.3493V22.8922C86.8271 17.0304 90.6722 13.1873 96.1892 13.1873C101.706 13.1873 105.247 16.9923 105.247 22.7018V24.1853H90.8226C90.9368 27.4971 93.2583 29.59 96.4178 29.59C99.3868 29.59 100.68 28.0685 101.48 26.3163L104.753 27.9903C103.611 30.1594 101.404 33.0141 96.3416 33.0141C90.6321 33.0141 86.8271 29.169 86.8271 23.3473V23.3493ZM101.289 21.1802C101.061 18.3636 99.0821 16.6515 96.1511 16.6515C93.2202 16.6515 91.2416 18.3636 90.8607 21.1802H101.289Z" fill="white"/>
<path d="M109.277 5.84201H113.197V32.4829H109.277V5.84201Z" fill="white"/>
<path d="M117.278 23.3494V22.8923C117.278 17.0305 121.123 13.1874 126.64 13.1874C132.157 13.1874 135.698 16.9924 135.698 22.7018V24.1853H121.274C121.388 27.4972 123.709 29.5901 126.869 29.5901C129.838 29.5901 131.131 28.0685 131.931 26.3164L135.205 27.9903C134.062 30.1594 131.855 33.0142 126.793 33.0142C121.083 33.0142 117.278 29.1691 117.278 23.3474V23.3494ZM131.74 21.1803C131.512 18.3636 129.533 16.6516 126.602 16.6516C123.671 16.6516 121.693 18.3636 121.312 21.1803H131.74Z" fill="white"/>
<path d="M138.477 27.0783C138.477 23.2733 141.522 21.2926 145.631 21.2926H151.341V20.0738C151.341 17.9046 150.048 16.4592 147.307 16.4592C144.567 16.4592 143.274 17.8665 142.817 19.8853L139.162 18.7045C140.076 15.7355 142.55 13.1855 147.345 13.1855C152.141 13.1855 155.186 15.7736 155.186 20.3404V28.0666C155.186 28.8284 155.567 29.2093 156.253 29.2093H157.85V32.483H154.919C153.169 32.483 151.95 31.4927 151.95 29.933V29.8188H151.341C150.77 31.0376 149.4 33.0163 145.517 33.0163C141.634 33.0163 138.477 30.8853 138.477 27.0783ZM151.341 24.7187V24.3378H145.86C143.767 24.3378 142.396 25.252 142.396 26.964C142.396 28.6761 143.765 29.7807 146.087 29.7807C149.208 29.7807 151.339 27.8782 151.339 24.7187H151.341Z" fill="white"/>
<path d="M160.974 13.7207H164.817V16.4231H165.427C166.379 14.7492 168.167 13.1875 171.82 13.1875C176.501 13.1875 180.498 16.7659 180.498 22.8162V23.3875C180.498 29.4398 176.541 33.0163 171.82 33.0163C168.165 33.0163 166.377 31.4566 165.503 29.933H164.894V40.095H160.974V13.7207ZM176.541 23.2733V22.9305C176.541 18.8969 174.067 16.6516 170.679 16.6516C167.291 16.6516 164.856 18.8969 164.856 22.9305V23.2733C164.856 27.3068 167.291 29.5902 170.679 29.5902C174.067 29.5902 176.541 27.3068 176.541 23.2733Z" fill="white"/>
<path d="M183.45 26.5832L187.105 25.7072C187.638 28.8666 189.769 29.8549 192.281 29.8549C194.793 29.8549 196.162 28.8265 196.162 27.2668C196.162 25.7072 194.869 25.1739 192.431 24.7168L191.1 24.4883C187.295 23.8027 184.25 22.3192 184.25 18.7788C184.25 15.2384 187.105 13.1836 191.481 13.1836C195.857 13.1836 198.522 15.2004 199.322 18.4741L195.667 19.5025C195.248 17.2191 193.688 16.3811 191.481 16.3811C189.274 16.3811 188.055 17.2191 188.055 18.6264C188.055 20.148 189.312 20.7194 191.367 21.1003L192.698 21.3288C196.77 22.0525 200.005 23.2694 200.005 27.0764C200.005 30.8834 196.96 33.0144 192.279 33.0144C187.598 33.0144 184.134 30.8834 183.45 26.5812V26.5832Z" fill="white"/>
</g>
<defs>
<clipPath id="clip0_1_11065">
<rect width="200" height="40.0946" fill="white"/>
</clipPath>
</defs>
</svg>
